<?xml version="1.0" encoding="utf-8"?>
<!-- Generator: Adobe Illustrator 19.0.0, SVG Export Plug-In . SVG Version: 6.00 Build 0)  -->
<svg version="1.1" id="Layer_1" xmlns="http://www.w3.org/2000/svg" xmlns:xlink="http://www.w3.org/1999/xlink" x="0px" y="0px"
	 viewBox="0 0 200 100" style="enable-background:new 0 0 200 100;" xml:space="preserve">
<style type="text/css">
	.st0{fill:#FFFFFF;}
	.st1{fill:#A6CE38;}
</style>
<path id="XMLID_42_" class="st0" d="M11.8,32.7l11.8-8.1v16.2L11.8,32.7V65H0.1V0h11.8v0H28l-8.1,11.8L11.8,0.1V32.7z M200,0h-16.2
	v0H172v0h-16.2l7.9,11.8L172,0.1V65h11.8V0.1l8.1,11.8L200,0z M133.8,65V32.7l11.8,8.1V24.6l-11.8,8.1V0.1l8.1,11.8L150,0h-16.2v0
	H122v65L133.8,65L133.8,65l16.2,0l-8.1-11.8L133.8,65z M96,65V0.1l8.1,11.8L112.2,0H96v0H84.2v65L96,65L96,65l16.2,0L104,53.2L96,65
	z M30.1,65h11.8L52,0H40.2L30.1,65z M63.8,0H52l10.1,65h11.8L63.8,0z"/>
<path id="XMLID_26_" class="st0" d="M0,78.4h11.9v1.1H1.2V88h8.4v1.1H1.2v10.6H0V78.4z M30.2,78.4h1.2v21.3h-1.2V78.4z M64.1,84.5
	c0-0.7-0.1-1.4-0.3-2c-0.2-0.6-0.5-1.2-0.9-1.7c-0.4-0.5-0.9-0.9-1.5-1.2c-0.6-0.3-1.3-0.4-2.1-0.4c-1.1,0-2,0.2-2.7,0.7
	c-0.7,0.5-1.3,1.1-1.8,2c-0.4,0.9-0.8,1.9-0.9,3.1c-0.2,1.2-0.3,2.6-0.3,4.1c0,1.4,0.1,2.7,0.3,4c0.2,1.2,0.5,2.3,0.9,3.2
	c0.4,0.9,1,1.6,1.7,2.1s1.6,0.8,2.7,0.8c1,0,1.9-0.3,2.6-0.8c0.7-0.5,1.2-1.1,1.6-1.8c0.4-0.7,0.6-1.4,0.8-2.1
	c0.2-0.7,0.2-1.3,0.2-1.7h1.2c0,0.6-0.1,1.4-0.3,2.2c-0.2,0.9-0.5,1.7-1,2.5c-0.5,0.8-1.2,1.4-2,2c-0.8,0.5-1.9,0.8-3.3,0.8
	c-1.2,0-2.1-0.2-3-0.7c-0.8-0.5-1.5-1.2-2-2.2c-0.5-0.9-0.9-2.1-1.1-3.4c-0.2-1.3-0.4-2.9-0.4-4.6c0-1.7,0.1-3.2,0.4-4.5
	c0.2-1.4,0.6-2.5,1.2-3.5c0.5-1,1.3-1.7,2.1-2.2c0.9-0.5,1.9-0.8,3.1-0.8c1.3,0,2.3,0.2,3,0.7c0.8,0.5,1.4,1.1,1.8,1.7
	c0.4,0.7,0.7,1.4,0.9,2.1c0.2,0.7,0.2,1.4,0.2,1.9H64.1z M89.5,79.5h-5.7v-1.1h12.5v1.1h-5.7v20.2h-1.2V79.5z M117,78.4h1.2v21.3
	H117V78.4z M146.1,78c1.1,0,2,0.2,2.8,0.6c0.8,0.4,1.6,1,2.2,1.8c0.6,0.9,1.1,2,1.4,3.4c0.3,1.4,0.5,3.1,0.5,5.2
	c0,2.3-0.2,4.2-0.6,5.6c-0.4,1.4-1,2.6-1.7,3.3c-0.7,0.8-1.4,1.3-2.2,1.6c-0.8,0.3-1.6,0.4-2.3,0.4c-1,0-1.9-0.2-2.8-0.6
	c-0.8-0.4-1.6-1-2.2-1.8c-0.6-0.9-1.1-2-1.4-3.4c-0.3-1.4-0.5-3.1-0.5-5.2c0-2.1,0.2-3.8,0.5-5.2c0.3-1.4,0.8-2.5,1.4-3.4
	c0.6-0.9,1.3-1.5,2.2-1.8C144.2,78.2,145.1,78,146.1,78z M146.1,79.1c-1.1,0-2,0.2-2.7,0.7c-0.7,0.5-1.3,1.2-1.7,2
	c-0.4,0.9-0.8,1.9-1,3.1c-0.2,1.2-0.3,2.6-0.3,4c0,1.5,0.1,2.8,0.3,4c0.2,1.2,0.5,2.3,0.9,3.1c0.4,0.9,1,1.5,1.7,2
	c0.7,0.5,1.7,0.7,2.8,0.7c2,0,3.4-0.8,4.3-2.4c0.9-1.6,1.3-4.1,1.3-7.5c0-1.4-0.1-2.7-0.3-4c-0.2-1.2-0.5-2.3-0.9-3.2
	c-0.4-0.9-1-1.6-1.7-2.1C148.1,79.3,147.2,79.1,146.1,79.1z M173.4,78.4l9.4,19.3h0.1V78.4h1.2v21.3h-1.6L173,80.4H173v19.3h-1.2
	V78.4H173.4z"/>
<polygon id="XMLID_11_" class="st1" points="60.2,53.2 52,65 43.9,53.2 "/>
</svg>
