<?xml version="1.0" encoding="utf-8"?>
<!-- Generator: Adobe Illustrator 19.0.0, SVG Export Plug-In . SVG Version: 6.00 Build 0)  -->
<svg version="1.1" id="Layer_1" xmlns="http://www.w3.org/2000/svg" xmlns:xlink="http://www.w3.org/1999/xlink" x="0px" y="0px"
	 viewBox="-78 36 42 30" style="enable-background:new -78 36 42 30;" xml:space="preserve">
<style type="text/css">
	.st0{fill:#A7D100;}
</style>
<path class="st0" d="M-58.85,51.4h2.4l0.4-2.5h-2.7v-1.6c0-0.7,0.2-1.2,1.4-1.2h1.5v-2.2c-0.3,0-1.1-0.1-2.1-0.1
	c-2.1,0-3.5,1.2-3.5,3.3v1.8h-2.4v2.5h2.4v6.4h2.8v-6.4H-58.85z"/>
<path class="st0" d="M-42.25,50.5l-8.7-14.5h-18l-8.9,15l8.9,15h18l8.6-14.5h6.2v-1H-42.25z M-51.55,65h-16.8l-8.3-14l8.3-14h16.8
	l8.4,14L-51.55,65z"/>
</svg>
