<?xml version="1.0" encoding="utf-8"?>
<!-- Generator: Adobe Illustrator 19.0.0, SVG Export Plug-In . SVG Version: 6.00 Build 0)  -->
<svg version="1.1" id="Layer_1" xmlns="http://www.w3.org/2000/svg" xmlns:xlink="http://www.w3.org/1999/xlink" x="0px" y="0px"
	 viewBox="-78.024 36 36 30" style="enable-background:new -78.024 36 36 30;" xml:space="preserve">
<style type="text/css">
	.st0{fill:#A7D100;}
</style>
<path class="st0" d="M-50.95,36h-18l-8.9,15l8.9,15h18l8.903-15.004L-50.95,36z M-51.55,65h-16.8l-8.3-14l8.3-14h16.8l8.4,14
	L-51.55,65z"/>
<path class="st0" d="M-65.767,47.426v-2.367c1.562,0,3.056,0.313,4.483,0.94s2.655,1.47,3.683,2.53
	c1.029,1.06,1.847,2.325,2.456,3.795c0.608,1.47,0.912,3.01,0.912,4.619h-2.298c0-1.718-0.413-3.308-1.239-4.77
	s-1.949-2.619-3.368-3.47C-62.557,47.851-64.1,47.426-65.767,47.426z M-65.767,52.184v-2.368c1.907,0,3.537,0.696,4.889,2.089
	s2.028,3.072,2.028,5.037h-2.298c0-1.315-0.451-2.437-1.352-3.366C-63.402,52.648-64.491,52.184-65.767,52.184z M-65.767,56.942
	v-2.367c0.631,0,1.171,0.232,1.622,0.696s0.676,1.021,0.676,1.671H-65.767z"/>
</svg>
