<?xml version="1.0" encoding="utf-8"?>
<!-- Generator: Adobe Illustrator 19.0.0, SVG Export Plug-In . SVG Version: 6.00 Build 0)  -->
<svg version="1.1" id="Layer_1" xmlns="http://www.w3.org/2000/svg" xmlns:xlink="http://www.w3.org/1999/xlink" x="0px" y="0px"
	 viewBox="-78.024 36 36 30" style="enable-background:new -78.024 36 36 30;" xml:space="preserve">
<style type="text/css">
	.st0{fill:#A7D100;}
</style>
<path class="st0" d="M-50.95,36h-18l-8.9,15l8.9,15h18l8.903-15.004L-50.95,36z M-65.767,56.942v-2.367
	c0.631,0,1.171,0.232,1.622,0.696c0.451,0.464,0.676,1.021,0.676,1.671H-65.767z M-61.148,56.942c0-1.315-0.451-2.437-1.352-3.366
	c-0.902-0.928-1.991-1.392-3.267-1.392v-2.368c1.907,0,3.537,0.696,4.889,2.089c1.352,1.393,2.028,3.072,2.028,5.037H-61.148z
	 M-56.531,56.943c0-1.718-0.413-3.308-1.239-4.77c-0.826-1.462-1.949-2.619-3.368-3.47c-1.419-0.852-2.962-1.277-4.629-1.277v-2.367
	c1.562,0,3.056,0.313,4.483,0.94c1.427,0.627,2.655,1.47,3.683,2.53c1.029,1.06,1.847,2.325,2.456,3.795
	c0.608,1.47,0.912,3.01,0.912,4.619H-56.531z"/>
</svg>
