<?xml version="1.0" encoding="utf-8"?>
<!-- Generator: Adobe Illustrator 19.0.0, SVG Export Plug-In . SVG Version: 6.00 Build 0)  -->
<svg version="1.1" id="Layer_1" xmlns="http://www.w3.org/2000/svg" xmlns:xlink="http://www.w3.org/1999/xlink" x="0px" y="0px"
	 viewBox="-78 36 42 30" style="enable-background:new -78 36 42 30;" xml:space="preserve">
<style type="text/css">
	.st0{fill:#A7D100;}
</style>
<g>
	<path class="st0" d="M-59.817,45.99c-1.37,0-2.969,0.907-2.969,3.462c0,0.971,0.264,1.832,0.744,2.425
		c0.497,0.615,1.219,0.94,2.089,0.94c0.926,0,1.699-0.334,2.235-0.966c0.507-0.599,0.787-1.451,0.787-2.402
		c0.009-1.079-0.351-2.063-0.986-2.7C-58.421,46.246-59.06,45.99-59.817,45.99z"/>
	<path class="st0" d="M-42.25,50.5l-8.7-14.5h-18l-8.9,15l8.9,15h18l8.6-14.5h6.2v-1H-42.25z M-55.772,53.448
		c0,1.214-0.364,2.153-1.082,2.791c-0.685,0.608-1.665,0.917-2.913,0.917c-1.761,0-3.036-0.71-3.498-1.947l-0.194-0.519h1.211
		l0.105,0.234c0.442,0.986,1.668,1.134,2.359,1.134c0.951,0,1.672-0.211,2.143-0.629c0.481-0.426,0.725-1.092,0.725-1.981v-1.02
		c-0.195,0.205-0.422,0.392-0.678,0.556c-0.68,0.436-1.51,0.676-2.34,0.676c-1.252,0-2.293-0.461-3.011-1.333
		c-0.634-0.769-0.983-1.843-0.983-3.022c0-1.217,0.367-2.321,1.033-3.109c0.741-0.877,1.805-1.34,3.078-1.34
		c1.159,0,2.207,0.479,2.901,1.259v-1.066h1.143V53.448z"/>
</g>
</svg>
