<?xml version="1.0" encoding="utf-8"?>
<!-- Generator: Adobe Illustrator 19.0.0, SVG Export Plug-In . SVG Version: 6.00 Build 0)  -->
<svg version="1.1" id="Layer_1" xmlns="http://www.w3.org/2000/svg" xmlns:xlink="http://www.w3.org/1999/xlink" x="0px" y="0px"
	 viewBox="-78 36 42 30" style="enable-background:new -78 36 42 30;" xml:space="preserve">
<style type="text/css">
	.st0{fill:#A7D100;}
</style>
<path class="st0" d="M-42.25,50.5l-8.7-14.5h-18l-8.9,15l8.9,15h18l8.6-14.5h6.2v-1H-42.25z M-51.55,65h-16.8l-8.3-14l8.3-14h16.8
	l8.4,14L-51.55,65z"/>
<path class="st0" d="M-67.4,55.8c0.2,0,0.5,0,0.7,0c1.4,0,2.7-0.5,3.8-1.3c-1.3,0-2.5-0.9-2.8-2.2c0.2,0,0.4,0.1,0.6,0.1
	c0.3,0,0.5,0,0.8-0.1c-1.4-0.3-2.4-1.5-2.4-3l0,0c0.4,0.2,0.9,0.4,1.4,0.4c-0.8-0.6-1.4-1.5-1.4-2.6c0-0.6,0.1-1.1,0.4-1.6
	c1.5,1.9,3.7,3.1,6.3,3.2c-0.1-0.2-0.1-0.5-0.1-0.7c0-1.7,1.4-3.1,3-3.1c0.9,0,1.7,0.4,2.2,1c0.7-0.1,1.3-0.4,1.9-0.8
	c-0.2,0.7-0.7,1.3-1.3,1.7c0.6-0.1,1.2-0.2,1.7-0.5c-0.4,0.6-0.9,1.2-1.5,1.6c0,0.1,0,0.3,0,0.4c0,4.1-3.1,8.8-8.6,8.8
	C-64.5,57.2-66.1,56.6-67.4,55.8z"/>
</svg>
