<?xml version="1.0" encoding="utf-8"?>
<!-- Generator: Adobe Illustrator 19.0.0, SVG Export Plug-In . SVG Version: 6.00 Build 0)  -->
<svg version="1.1" id="Layer_1" xmlns="http://www.w3.org/2000/svg" xmlns:xlink="http://www.w3.org/1999/xlink" x="0px" y="0px"
	 viewBox="-78 36 42 30" style="enable-background:new -78 36 42 30;" xml:space="preserve">
<style type="text/css">
	.st0{fill:#A7D100;}
</style>
<path class="st0" d="M-42.25,50.5l-8.7-14.5h-18l-8.9,15l8.9,15h18l8.6-14.5h6.2v-1H-42.25z M-51.55,65h-16.8l-8.3-14l8.3-14h16.8
	l8.4,14L-51.55,65z"/>
<path class="st0" d="M-62.786,49.452c0-2.555,1.599-3.462,2.969-3.462c0.757,0,1.395,0.255,1.899,0.759
	c0.636,0.636,0.995,1.62,0.986,2.7c0,0.952-0.279,1.804-0.787,2.402c-0.536,0.632-1.308,0.966-2.235,0.966
	c-0.87,0-1.592-0.325-2.089-0.94C-62.522,51.284-62.786,50.423-62.786,49.452z M-56.915,45.049v1.066
	c-0.694-0.78-1.742-1.259-2.901-1.259c-1.273,0-2.337,0.463-3.078,1.34c-0.666,0.788-1.033,1.892-1.033,3.109
	c0,1.179,0.349,2.252,0.983,3.022c0.718,0.872,1.759,1.333,3.011,1.333c0.829,0,1.66-0.24,2.34-0.676
	c0.256-0.164,0.483-0.351,0.678-0.556v1.02c0,0.889-0.244,1.555-0.725,1.981c-0.471,0.417-1.193,0.629-2.143,0.629
	c-0.691,0-1.917-0.147-2.359-1.134l-0.105-0.234h-1.211l0.194,0.519c0.462,1.238,1.737,1.947,3.498,1.947
	c1.248,0,2.228-0.309,2.913-0.917c0.718-0.638,1.082-1.577,1.082-2.791v-8.399C-55.771,45.049-56.915,45.049-56.915,45.049z"/>
</svg>
