<?xml version="1.0" encoding="utf-8"?>
<!-- Generator: Adobe Illustrator 19.0.0, SVG Export Plug-In . SVG Version: 6.00 Build 0)  -->
<svg version="1.1" id="Layer_1" xmlns="http://www.w3.org/2000/svg" xmlns:xlink="http://www.w3.org/1999/xlink" x="0px" y="0px"
	 viewBox="-78 36 42 30" style="enable-background:new -78 36 42 30;" xml:space="preserve">
<style type="text/css">
	.st0{fill:#A7D100;}
</style>
<path class="st0" d="M-42.25,50.5l-8.7-14.5h-18l-8.9,15l8.9,15h18l8.6-14.5h6.2v-1H-42.25z M-54.1,47.9c0,0.1,0,0.3,0,0.4
	c0,4.1-3.1,8.8-8.6,8.8c-1.8,0.1-3.4-0.5-4.7-1.3c0.2,0,0.5,0,0.7,0c1.4,0,2.7-0.5,3.8-1.3c-1.3,0-2.5-0.9-2.8-2.2
	c0.2,0,0.4,0.1,0.6,0.1c0.3,0,0.5,0,0.8-0.1c-1.4-0.3-2.4-1.5-2.4-3c0.4,0.2,0.9,0.4,1.4,0.4c-0.8-0.6-1.4-1.5-1.4-2.6
	c0-0.6,0.1-1.1,0.4-1.6c1.5,1.9,3.7,3.1,6.3,3.2c-0.1-0.2-0.1-0.5-0.1-0.7c0-1.7,1.4-3.1,3-3.1c0.9,0,1.7,0.4,2.2,1
	c0.7-0.1,1.3-0.4,1.9-0.8c-0.2,0.7-0.7,1.3-1.3,1.7c0.6-0.1,1.2-0.2,1.7-0.5C-53,46.9-53.5,47.5-54.1,47.9z"/>
</svg>
