<?xml version="1.0" encoding="utf-8"?>
<!-- Generator: Adobe Illustrator 19.0.0, SVG Export Plug-In . SVG Version: 6.00 Build 0)  -->
<svg version="1.1" id="Layer_1" xmlns="http://www.w3.org/2000/svg" xmlns:xlink="http://www.w3.org/1999/xlink" x="0px" y="0px"
	 viewBox="0 0 15 15" style="enable-background:new 0 0 15 15;" xml:space="preserve">
<style type="text/css">
	.st0{fill-rule:evenodd;clip-rule:evenodd;fill:#A7D100;}
</style>
<path id="XMLID_5_" class="st0" d="M13.955,0.325H1.045c-0.443,0-0.801,0.354-0.801,0.792v12.766c0,0.437,0.358,0.792,0.801,0.792
	h7.357V9.58h-1.99V7.3h1.99V5.619c0-1.951,1.205-3.013,2.965-3.013c0.843,0,1.568,0.062,1.779,0.09v2.039l-1.221,0.001
	c-0.957,0-1.142,0.45-1.142,1.11V7.3h2.283l-0.297,2.28h-1.985v5.095h3.172c0.442,0,0.801-0.355,0.801-0.792V1.117
	C14.756,0.68,14.397,0.325,13.955,0.325z"/>
</svg>
