<?xml version="1.0" encoding="utf-8"?>
<!-- Generator: Adobe Illustrator 19.0.0, SVG Export Plug-In . SVG Version: 6.00 Build 0)  -->
<svg version="1.1" id="Layer_1" xmlns="http://www.w3.org/2000/svg" xmlns:xlink="http://www.w3.org/1999/xlink" x="0px" y="0px"
	 viewBox="0 0 15 15" style="enable-background:new 0 0 15 15;" xml:space="preserve">
<style type="text/css">
	.st0{fill-rule:evenodd;clip-rule:evenodd;fill:#A7D100;}
</style>
<path id="XMLID_22_" class="st0" d="M2.434,2.422C3.849,1.06,5.538,0.37,7.5,0.351c2.113,0.037,3.844,0.751,5.193,2.141
	c1.349,1.39,2.033,3.065,2.052,5.024c-0.038,2.015-0.764,3.708-2.179,5.08S9.462,14.662,7.5,14.68c-0.679,0-1.358-0.103-2.038-0.308
	c0.132-0.205,0.264-0.438,0.396-0.7c0.151-0.317,0.34-0.914,0.566-1.791c0.057-0.243,0.142-0.569,0.255-0.98
	c0.132,0.224,0.358,0.429,0.679,0.616c0.849,0.392,1.745,0.354,2.689-0.112c0.981-0.56,1.66-1.427,2.038-2.603
	c0.34-1.231,0.297-2.374-0.127-3.428C11.533,4.32,10.774,3.56,9.679,3.094C8.302,2.702,6.962,2.744,5.66,3.22
	C4.359,3.695,3.453,4.512,2.943,5.669C2.811,6.098,2.731,6.522,2.703,6.942c-0.028,0.42-0.014,0.83,0.042,1.231
	c0.057,0.401,0.198,0.76,0.425,1.078c0.226,0.317,0.528,0.56,0.906,0.728c0.094,0.037,0.17,0.037,0.226,0
	c0.075-0.037,0.151-0.187,0.226-0.448C4.604,9.27,4.632,9.092,4.613,8.999C4.594,8.962,4.557,8.896,4.5,8.803
	C4.104,8.169,3.972,7.502,4.104,6.802c0.132-0.7,0.425-1.292,0.877-1.777c0.698-0.616,1.514-0.952,2.448-1.008
	C8.363,3.961,9.16,4.213,9.821,4.773c0.358,0.41,0.59,0.905,0.693,1.483s0.104,1.133,0,1.665c-0.104,0.532-0.288,1.031-0.552,1.497
	c-0.472,0.728-1.028,1.101-1.67,1.119c-0.377-0.019-0.684-0.163-0.92-0.434C7.137,9.834,7.066,9.521,7.16,9.167
	C7.198,8.962,7.311,8.561,7.5,7.963C7.689,7.366,7.792,6.919,7.811,6.62C7.755,5.911,7.425,5.547,6.821,5.529
	C6.349,5.585,6,5.795,5.774,6.158C5.547,6.522,5.425,6.937,5.406,7.404C5.462,7.945,5.547,8.318,5.66,8.523
	c-0.208,0.84-0.368,1.511-0.481,2.015c-0.038,0.131-0.142,0.532-0.311,1.203s-0.264,1.185-0.283,1.539v0.784
	c-1.34-0.616-2.396-1.507-3.17-2.673s-1.16-2.458-1.16-3.876C0.293,5.482,1.019,3.784,2.434,2.422z"/>
</svg>
