<?xml version="1.0" encoding="utf-8"?>
<!-- Generator: Adobe Illustrator 19.0.0, SVG Export Plug-In . SVG Version: 6.00 Build 0)  -->
<svg version="1.1" id="Layer_1" xmlns="http://www.w3.org/2000/svg" xmlns:xlink="http://www.w3.org/1999/xlink" x="0px" y="0px"
	 viewBox="-530.2 533 18 15" style="enable-background:new -530.2 533 18 15;" xml:space="preserve">
<style type="text/css">
	.st0{fill:#A7D100;}
</style>
<path id="XMLID_3_" class="st0" d="M-530,546.1c0.3,0,0.6,0.1,0.9,0.1c1.7,0,3.2-0.6,4.5-1.6c-1.6,0-2.9-1.1-3.3-2.5
	c0.2,0,0.4,0.1,0.7,0.1c0.3,0,0.6,0,0.9-0.1c-1.6-0.3-2.9-1.8-2.9-3.6c0,0,0,0,0,0c0.5,0.3,1,0.4,1.6,0.5c-1-0.7-1.6-1.8-1.6-3
	c0-0.7,0.2-1.3,0.5-1.8c1.8,2.2,4.4,3.6,7.4,3.8c-0.1-0.3-0.1-0.5-0.1-0.8c0-2,1.6-3.6,3.6-3.6c1,0,2,0.4,2.6,1.1
	c0.8-0.2,1.6-0.5,2.3-0.9c-0.3,0.8-0.8,1.6-1.6,2c0.7-0.1,1.4-0.3,2.1-0.6c-0.5,0.7-1.1,1.4-1.8,1.9c0,0.2,0,0.3,0,0.5
	c0,4.8-3.6,10.3-10.2,10.3C-526.5,547.7-528.4,547.1-530,546.1z"/>
</svg>
